HIERARCHY
ROOT pelvis
{
  OFFSET 0 100 0
  CHANNELS 6 Xposition Yposition Zposition Zrotation Xrotation Yrotation
  JOINT pelvis_right_femur
  {
    OFFSET -10.78128 -3.44521 -0.5502486
    CHANNELS 3 Zrotation Xrotation Yrotation
    JOINT right_femur_tibia
    {
      OFFSET -0.8047443 -44.0398 -0.1307829
      CHANNELS 3 Zrotation Xrotation Yrotation
      JOINT right_tibia_foot
      {
        OFFSET 3.006224 -47.83518 -5
        CHANNELS 3 Zrotation Xrotation Yrotation
        End Site
        {
          OFFSET 0 -5 15
        }
      }
    }
  }
  JOINT pelvis_left_femur
  {
    OFFSET 10.78128 -3.44521 -0.5502486
    CHANNELS 3 Zrotation Xrotation Yrotation
    JOINT left_femur_tibia
    {
      OFFSET 0.8047443 -44.0398 -0.1307829
      CHANNELS 3 Zrotation Xrotation Yrotation
      JOINT left_tibia_foot
      {
        OFFSET -4.370144 -48.10324 -4.275266
        CHANNELS 3 Zrotation Xrotation Yrotation
        End Site
        {
          OFFSET 0 -5 15
        }
      }
    }
  }
  JOINT pelvis_spine1
  {
    OFFSET 0 6.468898 -3.129235
    CHANNELS 3 Zrotation Xrotation Yrotation
    JOINT spine1
    {
      OFFSET 0 23.15396 4.99043
      CHANNELS 3 Zrotation Xrotation Yrotation
      JOINT spine2
      {
        OFFSET 0 20.79997 -5.064912
        CHANNELS 3 Zrotation Xrotation Yrotation
        JOINT neck
        {
          OFFSET 0 14.38658 9.616178
          CHANNELS 3 Zrotation Xrotation Yrotation
          End Site
          {
            OFFSET 0 20 0
          }
        }
      }
      JOINT right_manubrium
      {
        OFFSET -5.722621 16.35077 3.967754
        CHANNELS 3 Zrotation Xrotation Yrotation
        JOINT right_clavicle
        {
          OFFSET -13.16364 1.694482 -4.693211
          CHANNELS 3 Zrotation Xrotation Yrotation
          JOINT right_humerus
          {
            OFFSET -28.5034 -0.3100689 -2.792744
            CHANNELS 3 Zrotation Xrotation Yrotation
            JOINT right_radius
            {
              OFFSET -25.15693 0.02248979 -1.271978
              CHANNELS 3 Zrotation Xrotation Yrotation
              End Site
              {
                OFFSET -15 0 0
              }
            }
          }
        }
      }
      JOINT left_manubrium
      {
        OFFSET 5.722621 16.35077 3.967754
        CHANNELS 3 Zrotation Xrotation Yrotation
        JOINT left_clavicle
        {
          OFFSET 13.16364 1.694482 -4.693211
          CHANNELS 3 Zrotation Xrotation Yrotation
          JOINT left_humerus
          {
            OFFSET 29.39168 -1.063119 -2.237045
            CHANNELS 3 Zrotation Xrotation Yrotation
            JOINT left_radius
            {
              OFFSET 24.59957 -0.9528479 0.9047498
              CHANNELS 3 Zrotation Xrotation Yrotation
              End Site
              {
                OFFSET 15 -0 -0
              }
            }
          }
        }
      }
    }
  }
}
MOTION
Frames: 11
Frame Time: 0.0416666666667
318.6467 101.7895 3131.162 1.586973 -5.467535 2.048946 0.3735206 19.85256 3.224778 -0 28.37052 -0 -1.39711 -5.553634 -0.1946361 -2.136255 -22.90556 -6.350472 -0 17.63676 -0 -4.436342 -7.995232 20.093 0.6571301 -3.041114 8.910546 0.3680338 13.81483 -5.301219 0.9945119 18.90571 0.8923191 -1.83159 -20.82969 4.615858 -2.364392 -32.81431 12.19656 84.55421 22.61988 -3.736919 -0 0 32.68673 -22.97679 15.77407 16.99893 1.913353 -18.40832 -3.544113 -93.29342 11.65424 39.22051 0 0 -7.430216 7.382357 12.95094 2.539035
320.1024 102.2199 3138.329 2.142861 -6.166976 2.370065 -0.3927399 17.86739 3.339409 -0 37.10116 -0 -1.181103 -0.02430352 -0.8509661 -3.687396 -19.41962 -7.365321 -0 19.48035 -0 -3.713779 -8.69813 19.76641 0.6967141 -2.974252 8.906469 0.3485414 13.88266 -5.319123 1.016113 18.95122 0.8730953 -1.845444 -20.78667 4.625036 -2.430148 -32.71733 12.1984 84.82843 22.67776 -4.005661 -0 0 32.40057 -22.8127 15.7212 16.83474 1.832973 -18.47115 -3.646719 -93.18761 11.70337 39.09769 0 0 -7.760827 7.331265 12.92858 2.68335
321.5739 103.21 3145.257 2.458123 -6.814723 3.07625 -0.5637234 13.46979 3.32206 -0 45.84701 -0 -0.9113475 4.376464 -1.87849 -4.763087 -14.84304 -7.990741 -0 20.61514 -0 -2.696565 -9.467789 18.92611 0.7425016 -2.896025 8.900634 0.3254583 13.96203 -5.339671 1.041898 19.00641 0.8533887 -1.859234 -20.74008 4.637863 -2.509273 -32.60045 12.19939 85.15393 22.7453 -4.325101 -0 0 32.05629 -22.62151 15.65278 16.63992 1.740845 -18.54649 -3.767734 -93.06341 11.76326 38.94664 0 0 -8.149169 7.275484 12.90066 2.84822
323.0036 104.5032 3151.72 2.499178 -7.344531 4.079598 -0.3218901 7.255705 3.061334 -0 52.02941 -0 -0.8116412 6.397209 -3.1005 -5.33862 -9.607821 -8.314188 -0 20.36497 -0 -1.804692 -10.51043 17.931 0.7935345 -2.80916 8.891604 0.2995877 14.05219 -5.362628 1.071756 19.07058 0.8352259 -1.871109 -20.6934 4.655184 -2.60104 -32.46553 12.19922 85.52619 22.81524 -4.690751 -0 0 31.65844 -22.41047 15.56948 16.41901 1.640609 -18.63459 -3.905762 -92.92534 11.83297 38.76719 0 0 -8.583375 7.217877 12.86871 3.027759
324.3351 105.7134 3157.681 2.373494 -7.735612 5.218969 -0.02839405 0.3510647 2.555565 -0 53.49904 -0 -1.131766 6.36514 -4.252083 -5.505058 -4.291707 -8.418495 -0 18.86351 -0 -1.302968 -11.93878 17.09634 0.8452245 -2.726384 8.880103 0.2748212 14.14377 -5.386425 1.102918 19.13228 0.8167644 -1.882463 -20.64809 4.673045 -2.692912 -32.33375 12.19834 85.8995 22.87069 -5.056725 -0 0 31.26527 -22.2044 15.49161 16.20302 1.542189 -18.7247 -4.046592 -92.79066 11.90184 38.58699 0 0 -9.015277 7.158134 12.83896 3.210915
325.5466 106.5105 3163.278 2.194327 -7.903175 6.321416 0.1367862 -6.352962 1.858679 -0 49.93666 -0 -1.786791 5.451463 -5.161282 -5.399191 0.6910228 -8.364909 -0 16.77886 -0 -1.276129 -13.75351 16.37558 0.8926833 -2.661111 8.868744 0.2551483 14.22572 -5.409117 1.131927 19.17766 0.7934449 -1.897016 -20.60217 4.685314 -2.76973 -32.23064 12.19772 86.21952 22.89731 -5.367945 -0 0 30.94766 -22.02823 15.44488 16.02739 1.454413 -18.80258 -4.173308 -92.67747 11.95685 38.44279 0 0 -9.393647 7.092388 12.81816 3.390047
326.6475 106.7285 3168.718 2.031869 -7.755457 7.268936 0.2001395 -12.37464 1.056454 -0 42.67994 -0 -2.385759 4.305423 -5.814584 -5.190923 5.159219 -8.252634 -0 14.84317 -0 -1.738727 -15.85278 15.59855 0.9337777 -2.618384 8.859232 0.2419719 14.29334 -5.42963 1.157056 19.20103 0.7630519 -1.916618 -20.55393 4.688936 -2.824918 -32.16718 12.19806 86.46208 22.89059 -5.599577 -0 0 30.73682 -21.89252 15.44052 15.90722 1.38049 -18.86154 -4.278108 -92.59377 11.99214 38.35204 0 0 -9.695035 7.018246 12.80937 3.562414
327.6588 106.371 3174.198 1.928182 -7.265062 8.02474 0.2442154 -17.46115 0.2687273 -0 33.68484 -0 -2.607285 3.093467 -6.267941 -5.03246 9.02126 -8.138846 -0 13.61298 -0 -2.509051 -17.94569 14.75198 0.968511 -2.596263 8.851916 0.2346883 14.34707 -5.447739 1.178136 19.20413 0.7263164 -1.940814 -20.50334 4.684222 -2.8594 -32.14084 12.19956 86.62995 22.85441 -5.754459 -0 0 30.62719 -21.79551 15.47559 15.8394 1.319642 -18.90194 -4.361171 -92.53836 12.00879 38.31273 0 0 -9.92097 6.936328 12.81178 3.72744
328.603 105.5659 3179.87 1.871502 -6.500615 8.610489 0.3668223 -21.48798 -0.3643533 -0 24.79407 -0 -2.455445 2.023538 -6.56023 -4.981512 12.20005 -7.997451 -0 13.46305 -0 -3.268686 -19.61505 13.94319 0.9960495 -2.592439 8.847449 0.2327389 14.38582 -5.462813 1.19451 19.18924 0.6850619 -1.968559 -20.45173 4.671961 -2.873557 -32.14812 12.20217 86.72389 22.79675 -5.834299 -0 0 30.61208 -21.73526 15.54413 15.82025 1.272097 -18.92334 -4.420985 -92.5095 12.00859 38.32152 0 0 -10.07208 6.850071 12.82329 3.880353
329.4983 104.5078 3185.837 1.798466 -5.623048 9.06882 0.6779516 -24.3682 -0.708595 -0 17.36269 -0 -2.170588 1.32834 -6.722522 -4.983515 14.66032 -7.796437 -0 14.64652 -0 -3.880641 -20.50706 13.23682 1.01331 -2.60678 8.847141 0.2364257 14.40441 -5.473175 1.204035 19.15718 0.6425045 -1.998109 -20.40297 4.652684 -2.864353 -32.18909 12.20588 86.73109 22.72743 -5.828198 -0 0 30.69657 -21.71599 15.64029 15.85235 1.241944 -18.9217 -4.450075 -92.50927 11.99146 38.38017 0 0 -10.13411 6.767424 12.84187 4.006498
330.3534 103.4164 3192.158 1.643647 -4.830026 9.432553 1.268323 -25.95911 -0.6534706 -0 12.15952 -0 -1.995754 1.034261 -6.806986 -4.923771 16.39151 -7.552975 -0 17.36061 -0 -4.501629 -20.40492 12.60358 1.016105 -2.639898 8.852031 0.2464418 14.39608 -5.476706 1.203889 19.10918 0.6038479 -2.026368 -20.36388 4.62762 -2.828085 -32.26402 12.21059 86.63465 22.6568 -5.721898 -0 0 30.88697 -21.74544 15.75572 15.93965 1.23591 -18.89249 -4.438518 -92.54159 11.95689 38.48979 0 0 -10.08496 6.700944 12.86567 4.083078
